<svg width="36" height="36" viewBox="0 0 36 36" fill="none" xmlns="http://www.w3.org/2000/svg">
<path d="M17.8945 8.73706C17.5801 8.73706 17.2691 8.7531 16.9626 8.78449C16.6562 8.81587 16.354 8.86238 16.057 8.92344C15.7599 8.9845 15.4681 9.06011 15.1822 9.14935L14.343 9.4575L13.5439 9.84333L12.7899 10.3021L12.0854 10.8291L11.4353 11.4196L10.8442 12.0691L10.3167 12.7729L9.8573 13.5262L9.47124 14.3243C9.3552 14.5973 9.25198 14.8771 9.16263 15.1628C9.07328 15.4486 8.99767 15.7402 8.9365 16.0369C8.87532 16.3336 8.82881 16.6355 8.79731 16.9417C8.76581 17.2479 8.75 17.5586 8.75 17.8727C8.75 18.1868 8.76604 18.4975 8.79731 18.8037C8.82841 19.1074 8.87486 19.4095 8.9365 19.7085C8.99767 20.0064 9.07328 20.2969 9.16263 20.5826C9.25198 20.8683 9.35508 21.1481 9.47124 21.4212L9.8573 22.2193L10.3167 22.9725L10.8442 23.6763L11.4353 24.3258L12.0854 24.9164L12.7899 25.4433L13.5439 25.9021L14.343 26.288L15.1822 26.5961L16.057 26.822C16.3563 26.8836 16.6586 26.93 16.9626 26.9611C17.2723 26.9927 17.5833 27.0085 17.8945 27.0084C18.209 27.0084 18.52 26.9924 18.8263 26.9611C19.1304 26.93 19.4327 26.8836 19.732 26.822L20.6069 26.5961L21.4461 26.288L22.245 25.9021L22.9992 25.4433L23.7037 24.9164L24.3539 24.3258L24.945 23.6763L25.4725 22.9725L25.9319 22.2193L26.318 21.4212L26.6266 20.5826C26.7159 20.2969 26.7915 20.0052 26.8527 19.7085L26.9919 18.8036C27.0233 18.4973 27.0393 18.1867 27.0393 17.8726C27.0393 17.5584 27.0233 17.2478 26.9919 16.9416C26.9608 16.6378 26.9143 16.3358 26.8527 16.0368C26.7915 15.739 26.7159 15.4486 26.6266 15.1627L26.318 14.3242L25.9319 13.5261L25.4725 12.7728L24.945 12.069L24.3539 11.4195L23.7037 10.829L22.9992 10.302L22.245 9.84321L21.4461 9.45739L20.6069 9.14923L19.732 8.92333L18.8263 8.78437C18.5168 8.75275 18.2058 8.73692 17.8945 8.73694V8.73706ZM17.8945 11.8903C18.1025 11.8903 18.3076 11.9006 18.5097 11.921L19.1054 12.0112L19.6808 12.1578L20.2318 12.3579L20.7557 12.6088L21.2483 12.9072L21.7088 13.2506L22.1333 13.6357L22.5188 14.0598L22.8625 14.5198L23.1613 15.0131L23.4121 15.5366C23.4875 15.7158 23.5544 15.8994 23.6126 16.0872C23.6708 16.275 23.7197 16.4668 23.7592 16.6623C23.7988 16.8577 23.828 17.0566 23.8494 17.2585L23.8801 17.8732C23.8801 18.0809 23.8698 18.286 23.8494 18.4881C23.829 18.6901 23.799 18.889 23.7592 19.0843C23.7195 19.2796 23.6705 19.4715 23.6126 19.6594L23.4121 20.21L23.1613 20.7335L22.8625 21.2266L22.5188 21.6868L22.1333 22.1109L21.7088 22.496L21.2483 22.8394L20.7557 23.1378L20.2318 23.3887L19.6808 23.5888L19.1054 23.7354L18.5097 23.8255C18.3053 23.8459 18.0999 23.8562 17.8944 23.8562C17.6889 23.8562 17.4835 23.8459 17.279 23.8255L16.6833 23.7354C16.4878 23.6958 16.2958 23.6468 16.1078 23.5888L15.5568 23.3887L15.0329 23.1378L14.5403 22.8394L14.0798 22.496L13.6553 22.1109L13.2698 21.6868L12.9261 21.2266L12.6274 20.7335L12.3765 20.21L12.176 19.6594L12.0294 19.0843L11.9392 18.4881C11.9187 18.2838 11.9085 18.0786 11.9085 17.8732C11.9085 17.668 11.9187 17.4628 11.9392 17.2585C11.9595 17.0566 11.9896 16.8576 12.0294 16.6623C12.0687 16.4683 12.1177 16.2764 12.1761 16.0873L12.3766 15.5368L12.6275 15.0132L12.9263 14.52L13.2699 14.0599L13.6554 13.6358L14.0799 13.2507L14.5405 12.9074L15.0331 12.6089L15.5569 12.3581C15.7372 12.2823 15.9212 12.2155 16.108 12.1579L16.6836 12.0113C16.8791 11.9717 17.0782 11.9414 17.2793 11.9211C17.4838 11.9007 17.6891 11.8904 17.8947 11.8904L17.8945 11.8903Z" fill="url(#paint0_radial_1164_257)"/>
<path d="M27.4101 6.13824C27.3375 6.13826 27.265 6.14193 27.1927 6.14924C27.1205 6.15654 27.0486 6.16748 26.9775 6.182C26.9063 6.19652 26.8359 6.2146 26.7666 6.23619C26.6972 6.25779 26.6289 6.28287 26.5621 6.31134C26.4952 6.33984 26.4298 6.37168 26.3661 6.40676C26.3024 6.44177 26.2404 6.47997 26.1805 6.5212C26.1206 6.56249 26.0627 6.60676 26.0072 6.65386C25.9516 6.70091 25.8985 6.75073 25.8479 6.80313C25.7973 6.85555 25.7494 6.91049 25.7043 6.96774C25.6592 7.025 25.6169 7.08449 25.5777 7.14599C25.5385 7.20745 25.5024 7.27084 25.4694 7.33593C25.4365 7.40106 25.4068 7.46782 25.3804 7.53594C25.3541 7.60405 25.3312 7.67345 25.3118 7.74386C25.2924 7.81427 25.2765 7.88561 25.2642 7.95762C25.2518 8.02961 25.2431 8.10218 25.2379 8.17505C25.2343 8.22667 25.2324 8.27841 25.2324 8.33016C25.2324 8.40327 25.2361 8.47633 25.2433 8.54907C25.2506 8.62178 25.2614 8.69408 25.2758 8.7657C25.2903 8.83732 25.3082 8.90816 25.3297 8.97797C25.3512 9.0478 25.3761 9.11651 25.4044 9.18383C25.4327 9.25117 25.4643 9.31705 25.4991 9.38121C25.5339 9.44536 25.5719 9.50772 25.6129 9.56805C25.6539 9.62834 25.6978 9.68653 25.7446 9.7424C25.7914 9.79832 25.8409 9.85185 25.893 9.90278C25.9451 9.95369 25.9996 10.0019 26.0565 10.0474C26.1134 10.0928 26.1725 10.1354 26.2336 10.1749C26.2948 10.2144 26.3578 10.2508 26.4225 10.2839C26.4872 10.3171 26.5535 10.347 26.6212 10.3735C26.6888 10.4 26.7578 10.423 26.8277 10.4426C26.8977 10.4621 26.9686 10.4781 27.0401 10.4905C27.1116 10.5029 27.1838 10.5117 27.2562 10.5169C27.3074 10.5206 27.3588 10.5224 27.4102 10.5224C27.4829 10.5224 27.5554 10.5188 27.6277 10.5115C27.6999 10.5042 27.7718 10.4933 27.8429 10.4788C27.9141 10.4643 27.9845 10.4462 28.0538 10.4246C28.1232 10.403 28.1914 10.3779 28.2583 10.3494C28.3252 10.321 28.3906 10.2892 28.4543 10.2541C28.518 10.2191 28.58 10.1808 28.6399 10.1396C28.6998 10.0983 28.7577 10.0541 28.8132 10.007C28.8687 9.95994 28.9219 9.91008 28.9724 9.85765C29.023 9.80522 29.071 9.75028 29.1161 9.69303C29.1612 9.63578 29.2035 9.57629 29.2427 9.51478C29.2819 9.45329 29.318 9.38986 29.3509 9.32473C29.3839 9.2596 29.4136 9.19284 29.4399 9.12472C29.4663 9.05661 29.4892 8.98721 29.5086 8.9168C29.528 8.84639 29.5439 8.77505 29.5562 8.70304C29.5686 8.63105 29.5773 8.55848 29.5825 8.48561C29.5861 8.43399 29.5879 8.38225 29.588 8.3305C29.588 8.25743 29.5843 8.18441 29.5771 8.1117C29.5698 8.03899 29.559 7.96669 29.5445 7.89507C29.5301 7.82346 29.5121 7.75261 29.4907 7.6828C29.4692 7.61297 29.4443 7.54427 29.416 7.47694C29.3877 7.4096 29.3561 7.34373 29.3213 7.27956C29.2865 7.21541 29.2485 7.15306 29.2075 7.09272C29.1665 7.03239 29.1225 6.97416 29.0757 6.91826C29.0289 6.86234 28.9795 6.80881 28.9274 6.75788C28.8753 6.70697 28.8207 6.65872 28.7638 6.61331C28.707 6.5679 28.6478 6.52538 28.5867 6.48592C28.5256 6.44642 28.4626 6.41002 28.3978 6.37686C28.3331 6.34369 28.2668 6.31379 28.1992 6.28728C28.1315 6.2608 28.0626 6.23775 27.9926 6.2182C27.9227 6.19865 27.8518 6.18263 27.7803 6.1702C27.7087 6.1578 27.6366 6.14901 27.5642 6.14386C27.5129 6.14019 27.4615 6.13836 27.4101 6.13836V6.13824Z" fill="url(#paint1_radial_1164_257)"/>
<path d="M16.1605 0.000333143C15.166 -0.00127064 14.2784 0.00285282 13.4811 0.0140793L11.3435 0.0713573C10.7102 0.0988507 10.1507 0.134704 9.64848 0.181099C9.39737 0.20424 9.16047 0.23013 8.93594 0.258654C8.72228 0.285584 8.5092 0.316942 8.29683 0.352706C8.09464 0.387073 7.90276 0.424187 7.71878 0.464511C7.53481 0.504835 7.35908 0.548367 7.18953 0.595106C7.02379 0.64081 6.85934 0.691082 6.69637 0.745863C6.53668 0.799704 6.38088 0.856753 6.22704 0.917697C5.91934 1.03958 5.6192 1.17636 5.31013 1.32964C5.07231 1.44763 4.85259 1.56711 4.64387 1.69358C4.43515 1.82005 4.23743 1.95363 4.04383 2.09911C3.84445 2.24967 3.65228 2.40954 3.46795 2.57819C3.27527 2.75369 3.07846 2.94671 2.87398 3.16242C2.61703 3.43197 2.39376 3.68331 2.19558 3.92995C2.09649 4.05321 2.0037 4.1751 1.91629 4.29767C1.82985 4.41847 1.74722 4.54194 1.66851 4.66791C1.59061 4.79278 1.51684 4.91994 1.44627 5.05076C1.3746 5.18384 1.30687 5.319 1.24316 5.45606C1.1128 5.73604 0.991139 6.03755 0.869709 6.37411C0.779624 6.62293 0.698958 6.87505 0.627882 7.12995C0.555368 7.39045 0.490872 7.66298 0.433365 7.95773C0.375858 8.25249 0.325683 8.56946 0.281578 8.92001C0.234052 9.30425 0.196084 9.68962 0.16771 10.0758C0.135634 10.5003 0.109057 10.9675 0.0872916 11.4874L0.0357415 13.2163L0.00801889 15.3238L0 17.8712L0.023484 21.5756L0.0967997 24.3822L0.153276 25.4785L0.223842 26.3869C0.246463 26.6318 0.274767 26.8761 0.308729 27.1196C0.339659 27.3359 0.37288 27.5252 0.408621 27.689C0.481143 28.022 0.566899 28.3521 0.665685 28.6783C0.760271 28.9906 0.868438 29.2987 0.989878 29.6016C1.10925 29.8983 1.23984 30.1845 1.38189 30.4599C1.52394 30.7352 1.67744 30.9999 1.8424 31.2541C2.00736 31.5083 2.18378 31.752 2.37211 31.9854C2.56023 32.2188 2.76032 32.4422 2.97158 32.6549C3.18317 32.8679 3.40632 33.0707 3.64151 33.2634C3.87947 33.4583 4.12683 33.6414 4.38268 33.8121C4.62016 33.9709 4.85511 34.1163 5.09179 34.2497C5.32846 34.3832 5.56719 34.5043 5.81257 34.6143C6.05795 34.7244 6.30952 34.8235 6.57231 34.9126C6.8351 35.0018 7.10889 35.081 7.39826 35.1514C7.68762 35.2217 7.99395 35.2835 8.31814 35.3373C8.64233 35.3911 8.98887 35.4373 9.35911 35.4771C9.72936 35.5168 10.1243 35.5497 10.5488 35.5772C10.9732 35.6047 11.4268 35.6267 11.9143 35.6443C12.6673 35.6716 13.8071 35.6875 15.1215 35.6936L19.3767 35.685L23.4061 35.6285L24.9382 35.5854L25.9363 35.5341C26.1505 35.5167 26.3601 35.4961 26.5624 35.4719C26.7647 35.4477 26.9643 35.4201 27.1586 35.3887C27.3529 35.3574 27.5428 35.3223 27.7294 35.2833C27.9139 35.2449 28.0974 35.202 28.2798 35.1547C28.4603 35.1089 28.6383 35.0568 28.8145 35.0014C28.9907 34.9461 29.165 34.8863 29.3384 34.8221C29.5127 34.7576 29.6854 34.6888 29.8564 34.6158C30.0286 34.5425 30.2005 34.4642 30.373 34.381C30.638 34.2534 30.8513 34.147 31.0386 34.0431C31.2148 33.9464 31.3845 33.8383 31.5465 33.7195C31.7065 33.6018 31.8655 33.4678 32.0488 33.2989C32.232 33.13 32.4397 32.9266 32.6969 32.6693C32.9229 32.4434 33.1136 32.247 33.2779 32.0685C33.4423 31.8899 33.5808 31.7291 33.7023 31.5743C33.818 31.4273 33.9259 31.2743 34.0253 31.1158C34.1223 30.9612 34.2117 30.8005 34.3028 30.6224C34.4398 30.3544 34.5617 30.1061 34.6708 29.8666C34.7768 29.6357 34.8737 29.4008 34.9611 29.1623C35.0472 28.9257 35.1218 28.685 35.1846 28.4411C35.2492 28.1903 35.3049 27.9254 35.353 27.6349C35.4011 27.3444 35.4418 27.0282 35.4771 26.6752C35.5124 26.3221 35.5424 25.9319 35.5687 25.4935L35.6386 24.0218L35.6986 22.1915L35.7415 20.1525L35.758 18.0203L35.7197 13.8327L35.6685 11.9571L35.5986 10.3467L35.5116 9.09115C35.4799 8.74176 35.4458 8.46659 35.4096 8.28055C35.3695 8.075 35.3248 7.87038 35.2753 7.66688C35.2272 7.46886 35.1743 7.27203 35.1167 7.07657C35.0605 6.88614 34.9995 6.69718 34.9336 6.50986C34.8686 6.32485 34.7996 6.14374 34.7274 5.96652C34.6552 5.78931 34.5771 5.61621 34.4958 5.44678C34.4145 5.27735 34.3292 5.11205 34.2398 4.95053C34.1503 4.789 34.057 4.63149 33.9596 4.47787C33.8621 4.32425 33.7606 4.17452 33.6548 4.02881C33.5497 3.88356 33.4401 3.74163 33.3261 3.60323C33.2126 3.46559 33.0949 3.33157 32.973 3.20137C32.8513 3.07133 32.7255 2.94518 32.5958 2.82311C32.466 2.70099 32.3323 2.58277 32.1944 2.46844C32.0559 2.35374 31.914 2.24337 31.7687 2.13749C31.6218 2.03053 31.4718 1.92807 31.3187 1.83025C31.1635 1.73104 31.0054 1.63645 30.8447 1.54661C30.6811 1.45526 30.5149 1.36862 30.3463 1.28679C30.0666 1.15082 29.8079 1.03019 29.554 0.923196C29.3043 0.817009 29.0498 0.722699 28.7912 0.640585C28.5312 0.558678 28.2605 0.488456 27.9627 0.427856C27.6648 0.367255 27.34 0.316736 26.9724 0.273778C26.6048 0.230819 26.1944 0.196109 25.7249 0.167241C25.2555 0.138373 24.7275 0.115689 24.1246 0.0973603L22.0756 0.0515386L19.4824 0.0209524L16.1617 0.000560382L16.1605 0.000333143ZM17.8852 3.15085L22.674 3.17812L24.4805 3.21294C24.978 3.22692 25.3577 3.2433 25.5802 3.2622C25.8701 3.2866 26.1461 3.31719 26.4102 3.35384C26.6636 3.38884 26.9158 3.43235 27.1663 3.48432C27.4068 3.53473 27.6363 3.59201 27.8559 3.65662C28.0755 3.72123 28.2853 3.79362 28.4865 3.8737C28.6878 3.95377 28.8803 4.04187 29.0655 4.13832C29.2492 4.23405 29.4278 4.3394 29.6005 4.45392C29.7723 4.56791 29.9379 4.69071 30.0988 4.82302C30.2596 4.95534 30.4155 5.09716 30.5678 5.24883C30.7285 5.40886 30.8767 5.57188 31.0134 5.74005C31.1496 5.90717 31.2755 6.08234 31.3906 6.2646C31.5071 6.44945 31.612 6.64132 31.7047 6.8391C31.7996 7.04071 31.8848 7.25379 31.9614 7.48027C32.0379 7.70674 32.106 7.94742 32.1664 8.2046C32.2296 8.47726 32.2826 8.7522 32.3252 9.02883C32.371 9.3221 32.4102 9.63483 32.4434 9.96968C32.4766 10.3045 32.5041 10.6616 32.5268 11.0436C32.5449 11.3501 32.5607 11.7545 32.5741 12.232L32.6077 13.8605L32.6333 17.8493L32.6041 21.8344L32.5691 23.4581L32.5208 24.639C32.4874 25.192 32.4521 25.6569 32.41 26.0615C32.3888 26.2638 32.3659 26.451 32.3404 26.6266C32.3166 26.7925 32.2884 26.9577 32.2558 27.1222C32.226 27.2721 32.1914 27.4211 32.1521 27.5689C32.1144 27.7099 32.0721 27.8497 32.025 27.9879C31.9777 28.1267 31.9261 28.2641 31.8705 28.3998C31.8117 28.5431 31.7496 28.6851 31.6844 28.8256C31.6263 28.951 31.5652 29.073 31.5006 29.1918C31.4367 29.3094 31.3689 29.4248 31.2972 29.5378C31.2261 29.6497 31.1517 29.7584 31.0738 29.8637C30.9963 29.9686 30.9151 30.0707 30.8302 30.1698C30.7457 30.2685 30.6575 30.364 30.5659 30.4562C30.4743 30.5484 30.3792 30.6374 30.2807 30.7233C30.1822 30.8093 30.08 30.8917 29.9743 30.9712C29.8685 31.0507 29.7591 31.127 29.6461 31.2001C29.533 31.2732 29.4164 31.3433 29.296 31.4102C29.1756 31.4771 29.0514 31.541 28.9237 31.6019C28.7937 31.6636 28.662 31.7214 28.5286 31.7753C28.3907 31.8309 28.2512 31.8827 28.1104 31.9305C27.824 32.0281 27.522 32.1138 27.204 32.1877C26.8725 32.2642 26.538 32.3268 26.2014 32.3753C26.0719 32.3942 25.7744 32.412 25.3483 32.4285L23.7243 32.4736L19.1203 32.5334L14.3014 32.541L12.4089 32.5208L11.1801 32.4826L10.274 32.4189C9.99261 32.3952 9.73096 32.3688 9.48581 32.3389C9.24066 32.309 9.01235 32.2757 8.79756 32.2381C8.59401 32.2029 8.39171 32.1609 8.19098 32.1121C8.00796 32.0676 7.82682 32.0157 7.64799 31.9565C7.47558 31.8993 7.31073 31.8362 7.15036 31.7669C6.98998 31.6976 6.83418 31.6217 6.67988 31.5387C6.52557 31.4558 6.37287 31.3658 6.21844 31.2676C6.10194 31.1936 5.98933 31.1187 5.88096 31.0393C5.77259 30.9599 5.66789 30.8807 5.56708 30.7978C5.46627 30.7149 5.36947 30.6294 5.27611 30.5414C5.18336 30.4539 5.0938 30.363 5.00759 30.269C4.92167 30.1753 4.83953 30.0788 4.76072 29.9789C4.6816 29.8787 4.60621 29.7755 4.5347 29.6696C4.46213 29.5622 4.39347 29.4521 4.32884 29.3397C4.26355 29.2263 4.20146 29.109 4.14246 28.988C4.08248 28.8648 4.0265 28.7396 3.97463 28.6126C3.92194 28.4834 3.87199 28.3501 3.82502 28.2124C3.73109 27.9369 3.64861 27.6436 3.5769 27.3309C3.50518 27.0181 3.44401 26.6859 3.39223 26.3319C3.34045 25.978 3.29875 25.6027 3.26553 25.2038C3.24102 24.91 3.22154 24.4523 3.20665 23.8749L3.17549 21.8215L3.18695 16.5869L3.2771 11.5849L3.34584 9.82259L3.38479 9.24007C3.3983 9.08451 3.41228 8.96926 3.4266 8.90007C3.4738 8.67245 3.52134 8.46064 3.57048 8.26234C3.61639 8.07527 3.66746 7.8895 3.72364 7.70525C3.77703 7.53136 3.83327 7.36846 3.89341 7.21415C3.95141 7.06467 4.01604 6.91786 4.08713 6.77414C4.15655 6.63438 4.23113 6.50058 4.31212 6.37033C4.39311 6.24008 4.48051 6.11373 4.57582 5.98806C4.67114 5.86239 4.77378 5.73833 4.88547 5.61254C4.99716 5.48676 5.11779 5.35972 5.24861 5.22878C5.40108 5.07545 5.55984 4.9285 5.72448 4.78831C5.87994 4.65606 6.04205 4.53183 6.2102 4.41612C6.3755 4.30157 6.54504 4.19961 6.72157 4.1059C6.8981 4.0122 7.08162 3.92754 7.27465 3.85136C7.46768 3.77518 7.67044 3.70702 7.88523 3.64516C8.11089 3.58186 8.33905 3.52786 8.56913 3.48329C8.81107 3.43587 9.06802 3.39451 9.34239 3.35843C9.61675 3.32234 9.90864 3.29118 10.2207 3.26415C10.4383 3.24536 10.8134 3.22863 11.3073 3.21454L13.1046 3.17903L17.886 3.14982L17.8852 3.15085Z" fill="url(#paint2_radial_1164_257)"/>
<defs>
<radialGradient id="paint0_radial_1164_257" cx="0" cy="0" r="1" gradientUnits="userSpaceOnUse" gradientTransform="translate(5.69673 38.2955) rotate(-9.53101) scale(75.5739 45.873)">
<stop stop-color="#FED576"/>
<stop offset="0.263" stop-color="#F47133"/>
<stop offset="0.609" stop-color="#BC3081"/>
<stop offset="1" stop-color="#4C63D2"/>
</radialGradient>
<radialGradient id="paint1_radial_1164_257" cx="0" cy="0" r="1" gradientUnits="userSpaceOnUse" gradientTransform="translate(5.69684 38.2955) rotate(-9.53101) scale(75.5739 45.8729)">
<stop stop-color="#FED576"/>
<stop offset="0.263" stop-color="#F47133"/>
<stop offset="0.609" stop-color="#BC3081"/>
<stop offset="1" stop-color="#4C63D2"/>
</radialGradient>
<radialGradient id="paint2_radial_1164_257" cx="0" cy="0" r="1" gradientUnits="userSpaceOnUse" gradientTransform="translate(5.69686 38.2955) rotate(-9.53101) scale(75.5739 45.873)">
<stop stop-color="#FED576"/>
<stop offset="0.263" stop-color="#F47133"/>
<stop offset="0.609" stop-color="#BC3081"/>
<stop offset="1" stop-color="#4C63D2"/>
</radialGradient>
</defs>
</svg>
