<svg width="108" height="85" viewBox="0 0 108 85" fill="none" xmlns="http://www.w3.org/2000/svg">
<path d="M13.7219 34.7422L43.8944 10.8609C49.3076 6.57636 58.0841 6.57636 63.4972 10.8609L93.6697 34.7422C99.0829 39.0267 99.0829 45.9733 93.6697 50.2578L63.4972 74.1391C58.0841 78.4236 49.3076 78.4236 43.8945 74.1391L13.7219 50.2578C8.30879 45.9733 8.30879 39.0267 13.7219 34.7422Z" stroke="#00FFF0" stroke-width="5"/>
<path d="M60.8624 21.2005C60.8624 23.2288 58.4382 26.1806 53.6353 26.1806C48.8323 26.1806 46.4082 23.2288 46.4082 21.2005C46.4082 19.1721 48.8323 16.2203 53.6353 16.2203C58.4382 16.2203 60.8624 19.1721 60.8624 21.2005Z" stroke="#5B5B5B" stroke-width="7"/>
<ellipse cx="67.9376" cy="40.2807" rx="2.68177" ry="2.12004" fill="#5B5B5B"/>
<rect x="28.6055" y="32.5072" width="50.0597" height="29.6805" rx="8" fill="#5B5B5B"/>
</svg>
