<svg width="217" height="120" viewBox="0 0 217 120" fill="none" xmlns="http://www.w3.org/2000/svg">
<path d="M74.7219 34.7422L104.894 10.8609C110.308 6.57636 119.084 6.57636 124.497 10.8609L154.67 34.7422C160.083 39.0267 160.083 45.9733 154.67 50.2578L124.497 74.1391C119.084 78.4236 110.308 78.4236 104.894 74.1391L74.7219 50.2578C69.3088 45.9733 69.3088 39.0267 74.7219 34.7422Z" stroke="#00FFF0" stroke-width="5"/>
<path d="M121.862 21.2005C121.862 23.2288 119.438 26.1806 114.635 26.1806C109.832 26.1806 107.408 23.2288 107.408 21.2005C107.408 19.1721 109.832 16.2203 114.635 16.2203C119.438 16.2203 121.862 19.1721 121.862 21.2005Z" stroke="#5B5B5B" stroke-width="7"/>
<ellipse cx="128.938" cy="40.2807" rx="2.68177" ry="2.12004" fill="#5B5B5B"/>
<rect x="89.6055" y="32.5072" width="50.0597" height="29.6805" rx="8" fill="#5B5B5B"/>
<path d="M8.85917 85.66V90.772H17.1032V95.524H8.85917V101.068H18.1832V106H2.70317V80.728H18.1832V85.66H8.85917ZM39.0997 90.808V95.92H23.2597V90.808H39.0997ZM52.0985 101.248H60.1625V106H45.9425V80.728H52.0985V101.248ZM83.4748 95.632C83.4748 96.208 83.4388 96.808 83.3668 97.432H69.4348C69.5308 98.68 69.9268 99.64 70.6228 100.312C71.3428 100.96 72.2188 101.284 73.2508 101.284C74.7868 101.284 75.8548 100.636 76.4548 99.34H83.0068C82.6708 100.66 82.0588 101.848 81.1708 102.904C80.3068 103.96 79.2148 104.788 77.8948 105.388C76.5748 105.988 75.0988 106.288 73.4668 106.288C71.4988 106.288 69.7468 105.868 68.2108 105.028C66.6748 104.188 65.4748 102.988 64.6108 101.428C63.7468 99.868 63.3148 98.044 63.3148 95.956C63.3148 93.868 63.7348 92.044 64.5748 90.484C65.4388 88.924 66.6388 87.724 68.1748 86.884C69.7108 86.044 71.4748 85.624 73.4668 85.624C75.4108 85.624 77.1388 86.032 78.6508 86.848C80.1628 87.664 81.3388 88.828 82.1788 90.34C83.0428 91.852 83.4748 93.616 83.4748 95.632ZM77.1748 94.012C77.1748 92.956 76.8148 92.116 76.0948 91.492C75.3748 90.868 74.4748 90.556 73.3948 90.556C72.3628 90.556 71.4868 90.856 70.7668 91.456C70.0708 92.056 69.6388 92.908 69.4708 94.012H77.1748ZM86.9384 95.92C86.9384 93.856 87.3224 92.044 88.0904 90.484C88.8824 88.924 89.9504 87.724 91.2944 86.884C92.6384 86.044 94.1384 85.624 95.7944 85.624C97.2104 85.624 98.4464 85.912 99.5024 86.488C100.582 87.064 101.41 87.82 101.986 88.756V85.912H108.142V106H101.986V103.156C101.386 104.092 100.546 104.848 99.4664 105.424C98.4104 106 97.1744 106.288 95.7584 106.288C94.1264 106.288 92.6384 105.868 91.2944 105.028C89.9504 104.164 88.8824 102.952 88.0904 101.392C87.3224 99.808 86.9384 97.984 86.9384 95.92ZM101.986 95.956C101.986 94.42 101.554 93.208 100.69 92.32C99.8504 91.432 98.8184 90.988 97.5944 90.988C96.3704 90.988 95.3264 91.432 94.4624 92.32C93.6224 93.184 93.2024 94.384 93.2024 95.92C93.2024 97.456 93.6224 98.68 94.4624 99.592C95.3264 100.48 96.3704 100.924 97.5944 100.924C98.8184 100.924 99.8504 100.48 100.69 99.592C101.554 98.704 101.986 97.492 101.986 95.956ZM120.192 89.26C120.912 88.156 121.812 87.292 122.892 86.668C123.972 86.02 125.172 85.696 126.492 85.696V92.212H124.8C123.264 92.212 122.112 92.548 121.344 93.22C120.576 93.868 120.192 95.02 120.192 96.676V106H114.036V85.912H120.192V89.26ZM143.114 85.696C145.466 85.696 147.338 86.464 148.73 88C150.146 89.512 150.854 91.6 150.854 94.264V106H144.734V95.092C144.734 93.748 144.386 92.704 143.69 91.96C142.994 91.216 142.058 90.844 140.882 90.844C139.706 90.844 138.77 91.216 138.074 91.96C137.378 92.704 137.03 93.748 137.03 95.092V106H130.874V85.912H137.03V88.576C137.654 87.688 138.494 86.992 139.55 86.488C140.606 85.96 141.794 85.696 143.114 85.696ZM159.668 83.824C158.588 83.824 157.7 83.512 157.004 82.888C156.332 82.24 155.996 81.448 155.996 80.512C155.996 79.552 156.332 78.76 157.004 78.136C157.7 77.488 158.588 77.164 159.668 77.164C160.724 77.164 161.588 77.488 162.26 78.136C162.956 78.76 163.304 79.552 163.304 80.512C163.304 81.448 162.956 82.24 162.26 82.888C161.588 83.512 160.724 83.824 159.668 83.824ZM162.728 85.912V106H156.572V85.912H162.728ZM180.869 85.696C183.221 85.696 185.093 86.464 186.485 88C187.901 89.512 188.609 91.6 188.609 94.264V106H182.489V95.092C182.489 93.748 182.141 92.704 181.445 91.96C180.749 91.216 179.813 90.844 178.637 90.844C177.461 90.844 176.525 91.216 175.829 91.96C175.133 92.704 174.785 93.748 174.785 95.092V106H168.629V85.912H174.785V88.576C175.409 87.688 176.249 86.992 177.305 86.488C178.361 85.96 179.549 85.696 180.869 85.696ZM201.959 85.624C203.375 85.624 204.611 85.912 205.667 86.488C206.747 87.064 207.575 87.82 208.151 88.756V85.912H214.307V105.964C214.307 107.812 213.935 109.48 213.191 110.968C212.471 112.48 211.355 113.68 209.843 114.568C208.355 115.456 206.495 115.9 204.263 115.9C201.287 115.9 198.875 115.192 197.027 113.776C195.179 112.384 194.123 110.488 193.859 108.088H199.943C200.135 108.856 200.591 109.456 201.311 109.888C202.031 110.344 202.919 110.572 203.975 110.572C205.247 110.572 206.255 110.2 206.999 109.456C207.767 108.736 208.151 107.572 208.151 105.964V103.12C207.551 104.056 206.723 104.824 205.667 105.424C204.611 106 203.375 106.288 201.959 106.288C200.303 106.288 198.803 105.868 197.459 105.028C196.115 104.164 195.047 102.952 194.255 101.392C193.487 99.808 193.103 97.984 193.103 95.92C193.103 93.856 193.487 92.044 194.255 90.484C195.047 88.924 196.115 87.724 197.459 86.884C198.803 86.044 200.303 85.624 201.959 85.624ZM208.151 95.956C208.151 94.42 207.719 93.208 206.855 92.32C206.015 91.432 204.983 90.988 203.759 90.988C202.535 90.988 201.491 91.432 200.627 92.32C199.787 93.184 199.367 94.384 199.367 95.92C199.367 97.456 199.787 98.68 200.627 99.592C201.491 100.48 202.535 100.924 203.759 100.924C204.983 100.924 206.015 100.48 206.855 99.592C207.719 98.704 208.151 97.492 208.151 95.956Z" fill="#5B5B5B"/>
</svg>
