<svg width="318" height="85" viewBox="0 0 318 85" fill="none" xmlns="http://www.w3.org/2000/svg">
<path d="M13.7219 34.7422L43.8944 10.8609C49.3076 6.57636 58.0841 6.57636 63.4972 10.8609L93.6697 34.7422C99.0829 39.0267 99.0829 45.9733 93.6697 50.2578L63.4972 74.1391C58.0841 78.4236 49.3076 78.4236 43.8945 74.1391L13.7219 50.2578C8.30879 45.9733 8.30879 39.0267 13.7219 34.7422Z" stroke="#00FFF0" stroke-width="5"/>
<path d="M60.8624 21.2005C60.8624 23.2288 58.4382 26.1806 53.6353 26.1806C48.8323 26.1806 46.4082 23.2288 46.4082 21.2005C46.4082 19.1721 48.8323 16.2203 53.6353 16.2203C58.4382 16.2203 60.8624 19.1721 60.8624 21.2005Z" stroke="#EEEEEE" stroke-width="7"/>
<ellipse cx="67.9376" cy="40.2807" rx="2.68177" ry="2.12004" fill="#D9D9D9"/>
<rect x="28.6055" y="32.5072" width="50.0597" height="29.6805" rx="8" fill="#EEEEEE"/>
<path d="M109.859 32.66V37.772H118.103V42.524H109.859V48.068H119.183V53H103.703V27.728H119.183V32.66H109.859ZM140.1 37.808V42.92H124.26V37.808H140.1ZM153.099 48.248H161.163V53H146.943V27.728H153.099V48.248ZM184.475 42.632C184.475 43.208 184.439 43.808 184.367 44.432H170.435C170.531 45.68 170.927 46.64 171.623 47.312C172.343 47.96 173.219 48.284 174.251 48.284C175.787 48.284 176.855 47.636 177.455 46.34H184.007C183.671 47.66 183.059 48.848 182.171 49.904C181.307 50.96 180.215 51.788 178.895 52.388C177.575 52.988 176.099 53.288 174.467 53.288C172.499 53.288 170.747 52.868 169.211 52.028C167.675 51.188 166.475 49.988 165.611 48.428C164.747 46.868 164.315 45.044 164.315 42.956C164.315 40.868 164.735 39.044 165.575 37.484C166.439 35.924 167.639 34.724 169.175 33.884C170.711 33.044 172.475 32.624 174.467 32.624C176.411 32.624 178.139 33.032 179.651 33.848C181.163 34.664 182.339 35.828 183.179 37.34C184.043 38.852 184.475 40.616 184.475 42.632ZM178.175 41.012C178.175 39.956 177.815 39.116 177.095 38.492C176.375 37.868 175.475 37.556 174.395 37.556C173.363 37.556 172.487 37.856 171.767 38.456C171.071 39.056 170.639 39.908 170.471 41.012H178.175ZM187.938 42.92C187.938 40.856 188.322 39.044 189.09 37.484C189.882 35.924 190.95 34.724 192.294 33.884C193.638 33.044 195.138 32.624 196.794 32.624C198.21 32.624 199.446 32.912 200.502 33.488C201.582 34.064 202.41 34.82 202.986 35.756V32.912H209.142V53H202.986V50.156C202.386 51.092 201.546 51.848 200.466 52.424C199.41 53 198.174 53.288 196.758 53.288C195.126 53.288 193.638 52.868 192.294 52.028C190.95 51.164 189.882 49.952 189.09 48.392C188.322 46.808 187.938 44.984 187.938 42.92ZM202.986 42.956C202.986 41.42 202.554 40.208 201.69 39.32C200.85 38.432 199.818 37.988 198.594 37.988C197.37 37.988 196.326 38.432 195.462 39.32C194.622 40.184 194.202 41.384 194.202 42.92C194.202 44.456 194.622 45.68 195.462 46.592C196.326 47.48 197.37 47.924 198.594 47.924C199.818 47.924 200.85 47.48 201.69 46.592C202.554 45.704 202.986 44.492 202.986 42.956ZM221.192 36.26C221.912 35.156 222.812 34.292 223.892 33.668C224.972 33.02 226.172 32.696 227.492 32.696V39.212H225.8C224.264 39.212 223.112 39.548 222.344 40.22C221.576 40.868 221.192 42.02 221.192 43.676V53H215.036V32.912H221.192V36.26ZM244.114 32.696C246.466 32.696 248.338 33.464 249.73 35C251.146 36.512 251.854 38.6 251.854 41.264V53H245.734V42.092C245.734 40.748 245.386 39.704 244.69 38.96C243.994 38.216 243.058 37.844 241.882 37.844C240.706 37.844 239.77 38.216 239.074 38.96C238.378 39.704 238.03 40.748 238.03 42.092V53H231.874V32.912H238.03V35.576C238.654 34.688 239.494 33.992 240.55 33.488C241.606 32.96 242.794 32.696 244.114 32.696ZM260.668 30.824C259.588 30.824 258.7 30.512 258.004 29.888C257.332 29.24 256.996 28.448 256.996 27.512C256.996 26.552 257.332 25.76 258.004 25.136C258.7 24.488 259.588 24.164 260.668 24.164C261.724 24.164 262.588 24.488 263.26 25.136C263.956 25.76 264.304 26.552 264.304 27.512C264.304 28.448 263.956 29.24 263.26 29.888C262.588 30.512 261.724 30.824 260.668 30.824ZM263.728 32.912V53H257.572V32.912H263.728ZM281.869 32.696C284.221 32.696 286.093 33.464 287.485 35C288.901 36.512 289.609 38.6 289.609 41.264V53H283.489V42.092C283.489 40.748 283.141 39.704 282.445 38.96C281.749 38.216 280.813 37.844 279.637 37.844C278.461 37.844 277.525 38.216 276.829 38.96C276.133 39.704 275.785 40.748 275.785 42.092V53H269.629V32.912H275.785V35.576C276.409 34.688 277.249 33.992 278.305 33.488C279.361 32.96 280.549 32.696 281.869 32.696ZM302.959 32.624C304.375 32.624 305.611 32.912 306.667 33.488C307.747 34.064 308.575 34.82 309.151 35.756V32.912H315.307V52.964C315.307 54.812 314.935 56.48 314.191 57.968C313.471 59.48 312.355 60.68 310.843 61.568C309.355 62.456 307.495 62.9 305.263 62.9C302.287 62.9 299.875 62.192 298.027 60.776C296.179 59.384 295.123 57.488 294.859 55.088H300.943C301.135 55.856 301.591 56.456 302.311 56.888C303.031 57.344 303.919 57.572 304.975 57.572C306.247 57.572 307.255 57.2 307.999 56.456C308.767 55.736 309.151 54.572 309.151 52.964V50.12C308.551 51.056 307.723 51.824 306.667 52.424C305.611 53 304.375 53.288 302.959 53.288C301.303 53.288 299.803 52.868 298.459 52.028C297.115 51.164 296.047 49.952 295.255 48.392C294.487 46.808 294.103 44.984 294.103 42.92C294.103 40.856 294.487 39.044 295.255 37.484C296.047 35.924 297.115 34.724 298.459 33.884C299.803 33.044 301.303 32.624 302.959 32.624ZM309.151 42.956C309.151 41.42 308.719 40.208 307.855 39.32C307.015 38.432 305.983 37.988 304.759 37.988C303.535 37.988 302.491 38.432 301.627 39.32C300.787 40.184 300.367 41.384 300.367 42.92C300.367 44.456 300.787 45.68 301.627 46.592C302.491 47.48 303.535 47.924 304.759 47.924C305.983 47.924 307.015 47.48 307.855 46.592C308.719 45.704 309.151 44.492 309.151 42.956Z" fill="#EEEEEE"/>
</svg>
